<?xml version="1.0" encoding="UTF-8"?>
<svg width="307px" height="81px" viewBox="0 0 307 81" version="1.1" xmlns="http://www.w3.org/2000/svg" xmlns:xlink="http://www.w3.org/1999/xlink">
    <!-- Generator: Sketch 52.6 (67491) - http://www.bohemiancoding.com/sketch -->
    <title>logo</title>
    <desc>Created with Sketch.</desc>
    <defs>
        <polygon id="path-1" points="0 0.114 306.9497 0.114 306.9497 79.9998 0 79.9998"></polygon>
    </defs>
    <g id="logo" stroke="none" stroke-width="1" fill="none" fill-rule="evenodd">
        <g id="Group-11">
            <g id="Group-10">
                <path d="M137.5229,44.9966 C137.5169,44.9276 137.5079,44.8746 137.5079,44.8746 L137.4989,44.7936 C137.5009,44.8006 137.5079,44.8966 137.5229,44.9966" id="Fill-1" fill="#0054A3"></path>
                <g id="Group-5" transform="translate(0.000000, 0.886200)">
                    <mask id="mask-2" fill="white">
                        <use xlink:href="#path-1"></use>
                    </mask>
                    <g id="Clip-4"></g>
                    <path d="M178.5517,0.1138 L203.6277,0.1168 C213.0107,0.1168 222.5677,3.3668 229.8407,9.0388 C232.8487,11.3758 236.1157,14.6478 238.7787,19.0568 C239.3037,11.2118 245.9537,4.9808 254.0697,4.9808 C262.5307,4.9808 269.4187,11.7438 269.4187,20.0658 C269.4187,21.5708 269.1867,23.0398 268.7667,24.4148 C272.2877,22.6268 276.8607,21.4988 282.7427,21.4988 C299.9407,21.4988 306.0657,31.0638 306.0657,40.0158 L306.0657,47.3198 C306.6157,48.9878 306.9497,50.8818 306.9497,53.0948 C306.9467,58.8288 304.5147,72.1468 281.9907,72.1468 C276.4497,72.1468 271.9447,71.2608 268.3057,69.4828 L268.3057,71.3438 L239.8837,71.3438 L239.8837,59.0918 C237.0517,64.5148 233.2787,68.4128 229.8407,71.0858 C222.5637,76.7508 213.0107,79.9998 203.6257,79.9998 L178.5517,79.9998 C172.3547,79.9998 167.0027,76.4148 164.5027,71.2438 C158.7877,76.5278 150.8947,79.9998 140.9407,79.9998 C133.8547,79.9998 127.4797,78.2508 122.1337,74.9398 C116.7897,78.2508 110.4197,79.9998 103.3297,79.9998 C93.3717,79.9998 85.4847,76.5278 79.7677,71.2438 C77.2657,76.4078 71.9177,79.9998 65.7177,79.9998 C57.1317,79.9998 50.1477,73.1348 50.1477,64.6978 L50.1477,62.5418 L40.4897,62.5418 C36.9597,62.4998 33.7627,61.3838 31.1367,59.5258 L31.1367,64.6978 C31.1367,73.1348 24.1517,79.9998 15.5697,79.9998 C6.9857,79.9998 -0.0003,73.1348 -0.0003,64.6978 L-0.0003,40.0598 C0.0037,30.8348 3.3067,21.4478 9.0677,14.2928 C14.2897,7.8288 23.9987,0.1138 40.6427,0.1138 C54.7847,0.1138 63.9117,5.6858 69.5307,11.3228 C71.3627,4.8718 77.3807,0.1138 84.5267,0.1138 C93.1127,0.1138 100.0987,6.9798 100.0987,15.4168 L100.0987,45.9258 C100.1237,46.3808 100.3127,47.7258 100.8597,48.7238 C100.9937,48.9718 101.0727,49.0678 101.0727,49.0718 C101.0927,49.0878 101.6507,49.3978 103.3297,49.3978 C104.9837,49.3978 105.5557,49.0958 105.5597,49.1058 C105.5657,49.0998 105.6397,49.0178 105.8027,48.7238 C106.3617,47.7058 106.5507,46.2938 106.5717,45.8748 C106.6127,37.7638 113.5567,30.9338 122.0897,30.9068 C129.4847,30.8878 135.9177,36.0318 137.3857,43.1218 L137.5347,44.2308 L137.7047,46.1528 C137.7197,46.2938 137.9107,47.7058 138.4647,48.7168 C138.6077,48.9718 138.6847,49.0678 138.6847,49.0748 C138.7037,49.0878 139.2577,49.3978 140.9407,49.3978 C142.5947,49.3978 143.1667,49.0998 143.1697,49.1058 C143.1757,49.0998 143.2547,49.0178 143.4147,48.7238 C143.9497,47.7438 144.1487,46.4198 144.1787,45.9568 L144.1787,15.4168 C144.1787,6.9798 151.1637,0.1138 159.7467,0.1138 C163.2817,0.1138 166.5337,1.2978 169.1517,3.2458 C171.7687,1.2978 175.0207,0.1138 178.5517,0.1138 M201.7077,30.7208 L194.6067,30.7208 L194.6067,40.0618 C194.6067,43.5118 193.4167,46.7428 191.4467,49.4038 L201.6537,49.4038 C202.5847,49.3598 205.3677,49.0178 207.6517,47.8288 C209.6157,46.8098 211.3757,45.4458 211.3757,40.0618 C211.3757,34.6728 209.6157,33.3058 207.6557,32.2908 C205.0087,30.9188 201.9967,30.7358 201.7077,30.7208" id="Fill-3" fill="#231F20" mask="url(#mask-2)"></path>
                </g>
                <path d="M184.4853,56.2783 L183.5463,56.5283 C183.6883,56.5023 183.8153,56.4383 183.9543,56.4093 C184.1303,56.3563 184.3073,56.3333 184.4853,56.2783" id="Fill-6" fill="#0054A3"></path>
                <path d="M288.0615,44.0175 C282.0845,42.4785 278.6925,41.9465 278.6925,39.0795 C278.6925,37.4785 280.0495,36.3405 282.3625,36.3405 C285.0085,36.3405 286.4995,37.8785 286.4995,40.7445 L286.4995,41.1445 L298.1865,41.1445 L298.1865,40.8765 C298.1865,34.0715 292.7475,30.1425 282.7665,30.1425 C272.7135,30.1335 267.0105,34.2055 267.0105,40.5475 C267.0105,46.8885 271.3565,48.7495 279.6375,50.9625 C284.5305,52.2895 286.9755,52.8225 286.9755,55.1585 C286.9755,57.1695 285.4135,58.4965 282.8295,58.4965 C280.1185,58.4965 278.7585,57.0315 278.7585,54.0995 L278.7585,53.6925 L266.3325,53.6925 L266.3325,54.0995 C266.3325,61.5045 271.4915,65.2435 282.0185,65.2435 C293.4285,65.2435 299.0695,61.5725 299.0695,53.9645 C299.0695,47.7525 295.5345,45.9545 288.0615,44.0175 Z M247.8075,64.4395 L260.4185,64.4395 L260.4205,30.9345 L247.8075,30.9345 L247.8075,64.4395 Z M254.0985,13.6165 C249.9835,13.6165 246.6555,16.8905 246.6555,20.9315 C246.6555,24.9675 249.9835,28.2465 254.0985,28.2465 C258.2065,28.2465 261.5345,24.9675 261.5345,20.9315 C261.5345,16.8905 258.2065,13.6165 254.0985,13.6165 Z M40.6665,8.7535 C16.6485,8.7535 7.9305,27.9905 7.9305,40.9245 L7.9305,65.5615 C7.9305,69.7235 11.3615,73.0855 15.5845,73.0855 C19.8255,73.0855 23.2525,69.7235 23.2525,65.5645 L23.2525,40.9245 C23.2525,40.9245 23.3565,36.1005 25.7665,31.6065 C28.6315,26.2855 33.3595,23.8105 40.6665,23.8105 C47.9685,23.8105 52.7025,26.2885 55.5655,31.6065 C57.1135,34.4795 57.7045,37.4865 57.9335,39.2915 L40.7475,39.2915 C40.6965,39.2915 40.6425,39.2885 40.5905,39.2885 C36.0015,39.2885 32.2755,42.9445 32.2755,47.4625 C32.2755,51.9485 35.9585,55.5855 40.5085,55.6315 L58.0785,55.6315 L58.0785,65.5645 C58.0785,69.7235 61.5065,73.0975 65.7395,73.0975 C69.9695,73.0975 73.3995,69.7235 73.3995,65.5645 L73.3995,40.9245 C73.3995,27.9955 64.6825,8.7535 40.6665,8.7535 Z M159.7665,8.7575 C155.5405,8.7575 152.1075,12.1285 152.1075,16.2865 L152.1075,47.0845 C152.1075,47.0455 152.0235,50.3165 150.3985,53.2755 C149.1835,55.4935 147.0085,58.0365 140.9625,58.0365 C134.9185,58.0365 132.7485,55.4935 131.5335,53.2755 C129.9045,50.3165 129.8195,47.0455 129.8195,47.0125 C129.8135,46.6455 129.7595,46.2965 129.7055,45.9465 C129.6795,45.8165 129.6905,45.6825 129.6585,45.5605 C128.9475,42.1095 125.8535,39.5355 122.1335,39.5465 C117.9145,39.5595 114.4965,42.9365 114.4965,47.0845 L114.4965,47.0125 C114.4965,47.0455 114.4125,50.3125 112.7865,53.2755 C111.5675,55.4905 109.4005,58.0365 103.3485,58.0365 C97.3055,58.0365 95.1335,55.4905 93.9155,53.2755 C92.2955,50.3125 92.2075,47.0455 92.2075,47.0125 L92.2075,16.2865 C92.2075,12.1255 88.7765,8.7535 84.5455,8.7535 C80.3135,8.7535 76.8855,12.1255 76.8855,16.2825 L76.8855,47.0845 C76.8855,57.5375 83.9325,73.0975 103.3485,73.0975 C111.8325,73.0975 117.9555,70.1235 122.1575,65.9095 C126.3655,70.1235 132.4845,73.0975 140.9625,73.0975 C160.3815,73.0975 167.4325,57.5375 167.4325,47.0845 L167.4325,16.2865 C167.4325,12.1255 164.0005,8.7575 159.7665,8.7575 Z M203.6515,8.7575 L178.5755,8.7575 C174.3485,8.7575 170.9155,12.1255 170.9155,16.2865 L170.9155,40.2985 C170.8815,40.5925 170.8645,40.9025 170.8645,41.2005 C170.8645,45.7105 174.5845,49.3735 179.1825,49.3735 C180.1375,49.3735 181.0535,49.2065 181.9055,48.9135 C185.6575,48.1245 188.4755,44.8505 188.4755,40.9255 L188.4755,23.8175 L203.6515,23.8175 C203.6515,23.8175 208.5555,23.9115 213.1315,26.2805 C218.5415,29.0945 221.0655,33.7475 221.0655,40.9255 C221.0655,48.1005 218.5415,52.7555 213.1315,55.5675 C208.5515,57.9435 203.6455,58.0365 203.6005,58.0365 L178.5755,58.0365 C174.3445,58.0365 170.9135,61.4125 170.9135,65.5645 C170.9135,69.7235 174.3445,73.0975 178.5755,73.0975 L203.6475,73.0975 C216.8095,73.0975 236.3875,64.5295 236.3875,40.9255 C236.3875,17.3265 216.8095,8.7575 203.6515,8.7575 Z" id="Fill-8" fill="#FEFEFE"></path>
            </g>
        </g>
    </g>
</svg>